# xmcd
#
# Track frame offsets: 
#        150
#        12084
#        27018
#        41191
#        59322
#        77620
#        91052
#        106597
#        115251
#        128404
#        143940
#        163702
#        179607
#
# Disc length: 2512 seconds
#
# Revision: 2
# Processed by: cddbd v1.5.2PL0 Copyright (c) Steve Scherf et al.
# Submitted via: ExactAudioCopyFreeDBPlugin 1.0
#
DISCID=9a09ce0d
DTITLE=Go 4 it - Leave It All Behind You
DYEAR=2005
DGENRE=Easy Listening
TTITLE0=I'm On My Way
TTITLE1=No More Cup Of Coffee
TTITLE2=On My Own
TTITLE3=Down To The Ground
TTITLE4=Tell Me How To Start Again
TTITLE5=Leave It All Behind You
TTITLE6=What About You (Remix 2005)
TTITLE7=Things On My Mind (Alternative Version)
TTITLE8=The Rhythm Of Love
TTITLE9=Rosie
TTITLE10=To You
TTITLE11=Sometimes It's Hard
TTITLE12=Things On My Mind
EXTD=
EXTT0=
EXTT1=
EXTT2=
EXTT3=
EXTT4=
EXTT5=
EXTT6=
EXTT7=
EXTT8=
EXTT9=
EXTT10=
EXTT11=
EXTT12=
PLAYORDER=
